<?xml version="1.0" encoding="iso-8859-1"?>
<!-- Generator: Adobe Illustrator 19.0.0, SVG Export Plug-In . SVG Version: 6.00 Build 0)  -->
<svg version="1.1" id="Capa_1" xmlns="http://www.w3.org/2000/svg" xmlns:xlink="http://www.w3.org/1999/xlink" x="0px" y="0px"
	 viewBox="0 0 512 512" style="enable-background:new 0 0 512 512;" xml:space="preserve">
<path style="fill:#FFF;" d="M424.313,92.752c-21.763-15.296-48.02-18.143-73.412-20.897c-44.51-4.827-71.998-7.807-73.879-65.333
	C276.903,2.891,273.932,0,270.3,0h-28.387c-3.717,0-6.729,3.012-6.729,6.729v338.609L163.45,511.999
	c62.667,0,113.468-42.043,113.468-93.905c0-9.926,0-323.05,0-323.05c20.954,13.036,45.601,15.712,69.483,18.302
	c44.51,4.827,71.998,7.807,73.879,65.333c0.119,3.63,3.089,6.521,6.721,6.521h28.284c3.813,0,6.845-3.167,6.728-6.977
	C460.763,137.679,448.396,109.677,424.313,92.752z"/>
<path style="fill:#FFF;" d="M235.183,418.095v-72.756c-19.55-13.217-44.52-21.148-71.733-21.148
	c-62.667,0-113.468,42.043-113.468,93.905S100.783,512,163.45,512C203.067,512,235.183,469.957,235.183,418.095z"/>
<g>
</g>
<g>
</g>
<g>
</g>
<g>
</g>
<g>
</g>
<g>
</g>
<g>
</g>
<g>
</g>
<g>
</g>
<g>
</g>
<g>
</g>
<g>
</g>
<g>
</g>
<g>
</g>
<g>
</g>
</svg>
