<svg height="512" viewBox="0 0 512 512" width="512" xmlns="http://www.w3.org/2000/svg"><g id="flat"><path d="m320 128a106.459 106.459 0 0 1 70.1 26.34l33.9 29.66v-144l-33.9 29.66a106.459 106.459 0 0 1 -70.1 26.34h-264v32z" fill="#ea9d2d"/><path d="m304 480-80-40-80 40v-224h160z" fill="#0296e5"/><g fill="#fbb540"><path d="m228.341 295.307 7.253 22.322h23.471a4.564 4.564 0 0 1 2.683 8.257l-18.989 13.8 7.253 22.314a4.564 4.564 0 0 1 -7.023 5.1l-18.989-13.788-18.989 13.8a4.564 4.564 0 0 1 -7.023-5.1l7.253-22.322-18.989-13.8a4.564 4.564 0 0 1 2.683-8.257h23.471l7.253-22.322a4.564 4.564 0 0 1 8.682-.004z"/><path d="m264 96h-80a64 64 0 0 0 -64 64 64 64 0 0 0 64 64h80a64 64 0 0 0 64-64 64 64 0 0 0 -64-64zm32 64a32 32 0 0 1 -32 32h-80a32 32 0 0 1 -32-32 32 32 0 0 1 32-32h80a32 32 0 0 1 32 32z"/><path d="m24 88 32 8v32l-32 8z"/><rect height="176" rx="16" width="32" x="424" y="24"/></g><path d="m200 256h-32v-64a16 16 0 0 1 16-16 16 16 0 0 1 16 16z" fill="#0276b4"/><path d="m280 256h-32v-64a16 16 0 0 1 16-16 16 16 0 0 1 16 16z" fill="#0276b4"/><path d="m304 440-80-40-80 40v40l80-40 80 40z" fill="#fbb540"/></g></svg>